<?xml version="1.0" encoding="UTF-8" standalone="no"?>
<svg
   xmlns:dc="http://purl.org/dc/elements/1.1/"
   xmlns:cc="http://creativecommons.org/ns#"
   xmlns:rdf="http://www.w3.org/1999/02/22-rdf-syntax-ns#"
   xmlns:svg="http://www.w3.org/2000/svg"
   xmlns="http://www.w3.org/2000/svg"
   width="32"
   height="32"
   viewBox="0 0 32 32"
   version="1.1"
   id="svg8">
  <defs
     id="defs2" />
  <metadata
     id="metadata5">
    <rdf:RDF>
      <cc:Work
         rdf:about="">
        <dc:format>image/svg+xml</dc:format>
        <dc:type
           rdf:resource="http://purl.org/dc/dcmitype/StillImage" />
        <dc:title></dc:title>
      </cc:Work>
    </rdf:RDF>
  </metadata>
  <g
     id="layer1">
    <path
       id="path837"
       style="font-size:23.7604px;line-height:1.25;font-family:sans-serif;letter-spacing:0px;stroke-width:0.99002;fill:#1e6ec3"
       d="m 11.124455,3.9593898 c -2.8314953,0 -5.0485729,0.7575358 -6.6503904,2.273438 -1.5937274,1.508507 -2.390625,3.615826 -2.390625,6.3222652 0,2.699045 0.7968976,4.806364 2.390625,6.322266 1.6018175,1.508507 3.8188951,2.263672 6.6503904,2.263672 1.294398,0 2.511656,-0.156222 3.652344,-0.466797 1.140688,-0.31797 2.184332,-0.782729 3.13086,-1.396485 v 8.066407 l 2.451172,-2.767578 v -2.503907 h 3.082031 c 2.030587,0 3.564091,-0.418311 4.599609,-1.253906 1.043609,-0.835595 1.564453,-2.070861 1.564453,-3.705078 0,-1.619427 -0.520844,-2.846046 -1.564453,-3.681641 -1.035518,-0.842989 -2.569022,-1.263672 -4.599609,-1.263672 h -5.533203 -6.431641 v 1.839844 h 4.003906 v 4.449219 c -0.542029,0.288391 -1.152472,0.50208 -1.832031,0.642578 -0.679559,0.133103 -1.452731,0.199219 -2.31836,0.199219 -2.2166562,0 -3.8816283,-0.565886 -4.9980465,-1.697266 C 5.2231582,16.470587 4.667424,14.788276 4.667424,12.555093 c 0,-2.240577 0.5557342,-3.9252602 1.6640625,-5.0566412 1.1164182,-1.13138 2.7813903,-1.6972651 4.9980465,-1.6972651 1.124509,0 2.19746,0.1763071 3.216798,0.5312501 1.019339,0.354943 1.982593,0.883446 2.888671,1.585937 V 5.5336086 C 16.537014,5.0159836 15.553662,4.6240345 14.485784,4.3578273 13.425995,4.0916202 12.305593,3.9593898 11.124455,3.9593898 Z m 9.234376,10.0488282 h 3.082031 c 1.140688,0 2.023555,0.270738 2.646484,0.810547 0.622929,0.539809 0.933594,1.30404 0.933594,2.294922 0,0.998277 -0.310665,1.768785 -0.933594,2.308594 -0.622929,0.539809 -1.505796,0.808593 -2.646484,0.808593 h -3.082031 z" />
  </g>
</svg>
