<?xml version="1.0" standalone="no"?>
<!DOCTYPE svg PUBLIC "-//W3C//DTD SVG 20010904//EN"
 "http://www.w3.org/TR/2001/REC-SVG-20010904/DTD/svg10.dtd">
<svg version="1.0" xmlns="http://www.w3.org/2000/svg"
 width="600.000000pt" height="585.000000pt" viewBox="0 0 600.000000 585.000000"
 preserveAspectRatio="xMidYMid meet">

<g transform="translate(0.000000,585.000000) scale(0.100000,-0.100000)"
fill="#000000" stroke="none">
<path d="M2360 5810 c-282 -86 -358 -136 -402 -267 -12 -37 -26 -50 -122 -113
-59 -39 -106 -67 -104 -63 1 4 22 46 45 93 34 71 109 317 99 327 -1 2 -52 -29
-112 -68 -255 -168 -391 -372 -356 -535 l11 -49 -115 -110 c-63 -61 -112 -104
-108 -95 4 8 18 49 32 90 24 70 26 88 26 255 0 103 -4 187 -10 197 -8 15 -21
3 -85 -80 -192 -246 -229 -328 -231 -512 -1 -139 24 -220 63 -200 10 6 -7 -26
-39 -72 -31 -46 -76 -117 -100 -158 l-43 -75 7 85 c8 109 -7 210 -57 371 -64
208 -55 203 -100 64 -135 -417 -143 -539 -48 -731 l50 -102 -48 -142 -47 -142
-16 59 c-32 116 -73 206 -155 335 -46 73 -87 134 -93 136 -22 7 -41 -443 -23
-558 25 -160 78 -261 165 -316 l47 -29 -7 -75 c-4 -41 -9 -122 -13 -178 l-6
-104 -39 69 c-86 150 -174 261 -264 333 -84 68 -120 86 -108 55 3 -8 19 -90
36 -182 67 -363 161 -538 346 -643 30 -17 54 -33 54 -35 0 -13 51 -276 59
-302 8 -29 5 -27 -52 31 -60 60 -483 353 -494 342 -7 -7 145 -326 214 -450
100 -179 249 -304 420 -352 l61 -17 26 -61 c15 -34 51 -107 81 -161 30 -55 55
-101 55 -102 0 -2 -28 15 -62 38 -81 56 -244 130 -343 158 -44 12 -115 34
-158 48 -42 13 -82 23 -88 21 -14 -5 187 -266 262 -339 198 -196 324 -259 522
-265 l108 -3 60 -68 c33 -37 99 -105 147 -151 l87 -83 -62 30 c-34 17 -82 35
-107 41 -105 23 -507 70 -604 70 l-45 0 19 -21 c24 -27 244 -187 327 -238 80
-49 220 -105 317 -127 107 -24 254 -15 345 21 l66 27 87 -53 c48 -30 132 -76
187 -104 l100 -50 -175 -1 c-167 -1 -186 -3 -409 -47 -129 -26 -242 -47 -253
-47 -47 0 -8 -22 100 -56 239 -75 320 -95 435 -106 228 -23 384 16 529 134
l34 27 63 -20 c35 -10 105 -28 155 -38 50 -10 84 -21 76 -25 -8 -3 -42 -15
-75 -27 -59 -22 -483 -233 -560 -280 l-40 -24 70 -3 c129 -6 372 18 490 48
200 52 291 99 390 199 l59 61 95 0 94 0 79 -76 c58 -55 100 -86 152 -109 90
-42 260 -90 363 -104 105 -14 404 -34 410 -27 16 16 -56 61 -187 117 -30 13
-77 37 -105 55 -85 53 -192 103 -296 139 -55 18 -102 35 -104 37 -3 2 35 11
84 21 48 9 123 27 165 41 l78 24 29 -32 c34 -40 140 -97 224 -122 93 -28 343
-26 451 4 178 48 364 113 364 127 0 14 -55 29 -245 64 -280 52 -437 64 -554
41 -29 -5 -56 -10 -60 -10 -3 0 51 29 121 64 69 35 172 94 228 130 57 37 100
60 97 51 -4 -9 2 -24 13 -35 33 -33 97 -45 235 -45 121 1 137 3 225 33 110 39
173 72 342 184 137 90 208 145 208 161 0 22 -463 -16 -594 -49 -71 -17 -180
-58 -216 -81 -14 -9 25 33 85 93 61 60 134 137 163 171 49 56 56 61 79 52 54
-20 184 -4 306 39 118 42 319 209 414 345 31 45 83 110 116 144 32 33 54 64
49 67 -16 10 -331 -83 -416 -122 -69 -33 -193 -109 -273 -168 -15 -11 -2 20
43 98 35 62 78 146 96 186 26 59 36 72 54 72 13 0 52 11 88 24 153 55 284 164
366 306 54 93 206 406 216 445 l7 28 -44 -24 c-114 -63 -448 -299 -449 -317
-1 -4 -18 -26 -39 -50 l-39 -42 19 74 c11 41 28 125 38 186 11 61 21 112 23
113 1 1 30 16 63 32 34 17 90 60 131 100 116 114 169 243 230 565 15 80 29
155 32 168 9 46 -28 20 -145 -102 -145 -149 -206 -227 -254 -323 l-36 -72 -6
137 c-4 75 -9 162 -13 193 -6 54 -5 56 18 62 47 12 116 85 152 160 52 110 61
162 61 352 0 185 -13 405 -24 405 -9 0 -148 -234 -194 -325 -48 -96 -67 -166
-68 -249 0 -39 -2 -66 -4 -61 -2 6 -17 60 -34 122 -18 61 -46 152 -65 201 -28
77 -31 89 -15 85 27 -7 72 63 105 164 38 114 37 198 0 347 -36 141 -104 353
-116 361 -10 6 -38 -43 -70 -126 -36 -92 -50 -191 -50 -347 l0 -147 -68 113
c-37 62 -93 148 -124 192 -31 44 -55 80 -54 80 2 0 20 -14 41 -30 31 -25 41
-28 50 -18 36 38 47 248 20 352 -24 92 -77 182 -190 324 -57 71 -108 133 -114
136 -10 7 -10 -15 4 -336 5 -109 27 -199 64 -264 10 -17 -42 29 -115 102 -126
125 -133 134 -124 159 14 38 12 134 -4 188 -36 120 -249 336 -413 421 -40 20
-40 20 -13 -90 36 -154 70 -233 138 -322 20 -27 9 -23 -103 40 -99 56 -125 74
-125 92 0 40 -49 127 -100 176 -63 61 -137 96 -314 149 -156 46 -156 46 -156
26 0 -19 135 -196 203 -266 57 -58 165 -120 243 -139 22 -5 84 -41 138 -79
l98 -70 -70 6 c-80 7 -162 -7 -306 -49 -117 -34 -183 -65 -169 -79 32 -32 607
-73 721 -51 l54 10 79 -66 c43 -36 77 -67 76 -69 -2 -1 -37 4 -78 13 -78 16
-309 22 -367 10 -18 -5 -32 -13 -30 -19 4 -14 77 -51 264 -136 166 -75 276
-110 372 -118 62 -5 80 -11 103 -32 30 -29 147 -186 133 -179 -5 2 -52 25
-104 50 -106 52 -302 111 -352 106 l-33 -3 55 -52 c109 -102 337 -287 424
-344 49 -32 117 -71 152 -86 l63 -27 40 -100 c70 -176 70 -168 -6 -95 -78 76
-168 137 -300 203 -140 70 -142 65 -35 -71 39 -48 101 -141 140 -205 38 -64
91 -142 118 -173 44 -51 183 -174 228 -200 18 -10 38 -122 50 -275 l6 -75 -21
55 c-34 86 -75 141 -230 303 -97 102 -145 145 -147 134 -2 -9 15 -78 38 -154
97 -326 175 -502 286 -642 73 -93 73 -90 48 -264 -18 -123 -32 -174 -33 -122
-2 80 -68 230 -186 425 -61 102 -82 130 -98 130 -17 0 23 -570 49 -680 14 -62
86 -225 117 -265 14 -18 13 -25 -5 -75 -22 -59 -124 -280 -130 -280 -2 0 -4
69 -4 153 -1 164 -27 310 -76 434 -34 86 -49 78 -69 -42 -10 -55 -33 -173 -53
-263 -61 -275 -64 -399 -16 -536 l20 -59 -55 -71 c-30 -39 -73 -91 -95 -116
-39 -45 -39 -45 -31 -13 21 74 33 262 26 403 -3 79 -10 150 -14 157 -4 8 -17
-7 -35 -44 -15 -32 -73 -137 -127 -234 -55 -97 -108 -201 -119 -231 -22 -63
-40 -193 -40 -290 l0 -68 -66 -48 c-36 -26 -92 -64 -124 -84 l-59 -38 38 73
c50 92 88 205 112 329 31 160 36 160 -127 -2 -257 -256 -356 -391 -384 -525
l-11 -55 -102 -30 c-56 -17 -111 -34 -121 -37 -12 -3 4 21 42 65 66 78 128
166 159 227 22 42 45 116 39 123 -2 2 -36 -13 -75 -32 -38 -20 -116 -54 -171
-76 -154 -61 -210 -93 -267 -152 -67 -69 -133 -165 -133 -194 0 -12 -7 -25
-16 -28 -9 -3 -77 -6 -153 -6 l-137 0 -34 77 c-60 137 -160 218 -366 297 -50
18 -126 51 -169 72 -44 22 -83 41 -87 42 -17 8 -6 -38 26 -103 40 -84 108
-177 190 -263 70 -73 77 -72 -104 -18 l-105 32 -8 54 c-17 124 -94 229 -377
520 l-151 155 5 -55 c13 -131 86 -361 143 -453 14 -22 23 -41 20 -43 -2 -2
-58 32 -124 75 l-120 80 5 71 c11 152 -35 297 -169 541 -50 90 -104 190 -120
222 -16 31 -34 57 -40 57 -19 0 -6 -524 14 -578 l15 -44 -25 24 c-14 12 -60
67 -104 120 -76 95 -77 98 -64 125 7 15 21 69 31 118 25 134 15 256 -40 510
-25 116 -50 239 -55 274 -6 35 -13 66 -16 69 -9 9 -54 -102 -75 -185 -52 -208
-67 -339 -51 -442 6 -41 9 -76 7 -78 -6 -6 -112 212 -149 304 l-25 61 27 26
c35 33 96 157 116 233 26 98 73 668 57 696 -14 26 -121 -138 -209 -318 -44
-91 -56 -128 -70 -215 l-17 -105 -17 85 c-10 47 -23 131 -30 187 l-13 102 61
78 c78 102 134 186 166 248 35 70 194 572 183 582 -6 7 -159 -141 -237 -231
-83 -95 -131 -175 -160 -265 l-17 -56 -1 55 c-1 53 24 288 34 320 3 9 22 24
42 35 68 36 242 221 328 348 44 65 115 168 158 229 44 61 81 117 84 124 7 20
-71 -17 -192 -88 -149 -89 -220 -143 -275 -209 -28 -33 -50 -58 -50 -56 0 9
51 148 77 212 21 49 36 73 54 80 125 51 326 181 444 286 33 30 100 87 148 128
104 89 110 106 32 97 -112 -13 -314 -90 -410 -156 -26 -18 -48 -30 -50 -28 -2
1 24 42 58 89 106 147 91 136 198 148 131 15 216 41 376 114 212 98 273 130
273 143 0 20 -57 27 -205 26 -101 -1 -162 -7 -220 -21 l-80 -19 55 49 c30 27
71 60 90 73 l35 25 85 -15 c96 -17 152 -15 450 17 259 28 262 28 257 42 -5 17
-140 71 -243 98 -67 17 -119 23 -211 23 -68 1 -123 1 -123 2 0 1 38 31 85 67
68 54 92 67 120 67 50 0 150 36 203 72 119 82 322 324 295 352 -8 8 -1 10
-143 -34z m130 14 c0 -19 -101 -143 -179 -221 -104 -103 -180 -149 -267 -161
-88 -11 -97 -8 -90 36 4 21 21 65 37 100 48 99 107 135 339 208 140 43 160 48
160 38z m1191 -35 c74 -23 159 -54 190 -69 105 -53 182 -150 191 -240 l3 -35
-67 1 c-99 1 -192 49 -286 149 -65 67 -182 216 -182 229 0 10 16 7 151 -35z
m-1852 -141 c-37 -140 -84 -240 -155 -322 -75 -90 -223 -200 -242 -182 -12 13
-14 121 -3 172 16 71 91 184 171 257 47 44 244 187 257 187 1 0 -12 -50 -28
-112z m2424 55 c101 -66 263 -231 306 -313 31 -58 35 -73 35 -147 1 -45 -2
-85 -6 -89 -16 -15 -85 17 -137 63 -66 58 -163 178 -196 244 -23 45 -85 246
-85 276 0 19 4 18 83 -34z m636 -372 c169 -214 215 -361 177 -570 -6 -36 -16
-66 -23 -68 -6 -2 -42 27 -80 65 -76 76 -143 191 -161 277 -16 74 -27 433 -14
420 6 -5 51 -61 101 -124z m-3645 2 c12 -169 -21 -333 -91 -452 -39 -65 -153
-186 -175 -186 -31 0 -48 189 -27 300 14 78 45 143 114 245 93 136 157 214
165 198 4 -7 10 -54 14 -105z m646 76 c-19 -16 -89 -70 -155 -120 -191 -143
-298 -233 -475 -399 -150 -142 -159 -148 -102 -79 80 98 242 255 355 344 82
65 396 284 407 284 3 0 -11 -13 -30 -30z m2430 -132 c130 -87 240 -178 365
-300 109 -108 114 -115 58 -75 -68 48 -245 200 -308 265 -22 23 -63 53 -91 67
-50 24 -254 163 -254 173 0 8 152 -78 230 -130z m-2250 -18 c68 -10 256 -71
273 -88 6 -6 -11 -11 -44 -15 -30 -3 -135 -15 -234 -27 -192 -23 -390 -22
-452 1 -27 10 -31 15 -23 29 12 24 115 77 181 95 64 17 208 20 299 5z m2169
-5 c114 -28 210 -89 184 -115 -6 -6 -65 -16 -130 -22 -98 -9 -150 -7 -293 7
-230 23 -330 37 -325 47 6 9 169 64 250 83 83 20 234 20 314 0z m-2364 -264
c16 -6 -10 -22 -135 -82 -85 -41 -186 -87 -223 -102 -95 -38 -228 -66 -317
-66 l-74 0 54 56 c63 64 165 134 231 158 25 10 79 23 120 31 82 15 312 18 344
5z m2668 -19 c109 -29 188 -74 276 -158 l76 -72 -60 -1 c-145 0 -259 31 -480
132 -244 113 -242 111 -215 120 50 15 320 1 403 -21z m-3801 -134 c56 -185 61
-220 56 -358 -6 -145 -36 -252 -95 -333 l-36 -49 -18 24 c-10 13 -33 58 -50
99 -43 101 -49 198 -20 335 22 108 110 405 120 405 3 0 23 -55 43 -123z m4623
-8 c86 -267 109 -393 88 -494 -16 -75 -70 -202 -95 -223 -17 -14 -33 8 -92
126 -74 147 -53 491 40 675 8 15 16 27 19 27 2 0 20 -50 40 -111z m-4255 -114
c0 -3 -20 -31 -44 -62 -40 -53 -69 -98 -206 -313 -27 -41 -56 -97 -65 -124 -8
-27 -31 -86 -49 -130 -103 -250 -168 -509 -196 -789 -16 -155 -8 -556 14 -692
92 -565 312 -1025 689 -1436 159 -175 337 -340 337 -314 0 3 40 -21 88 -54 49
-32 126 -81 173 -107 95 -55 181 -115 174 -122 -2 -2 -53 22 -112 53 -352 188
-641 437 -881 763 -137 185 -285 466 -337 637 -15 50 -35 106 -45 125 -22 43
-61 187 -91 330 -51 249 -61 764 -19 955 5 22 18 93 30 157 61 348 240 759
462 1061 28 37 56 67 64 67 8 0 14 -2 14 -5z m3878 -92 c38 -54 86 -127 107
-163 21 -36 45 -76 54 -90 34 -57 -75 76 -121 147 -28 43 -73 106 -99 141 -41
52 -46 62 -30 62 14 0 41 -30 89 -97z m-3490 38 c-8 -21 -303 -269 -393 -330
-116 -79 -225 -138 -274 -147 -32 -7 -33 -6 -26 17 61 197 284 367 585 445 96
25 113 28 108 15z m3171 -28 c187 -54 309 -120 416 -228 61 -61 125 -165 125
-204 0 -18 -4 -20 -32 -15 -43 8 -161 72 -254 138 -91 65 -391 316 -398 334
-7 16 16 12 143 -25z m-4276 -483 c100 -160 167 -347 167 -469 0 -71 -28 -224
-45 -248 -11 -15 -16 -16 -38 -4 -85 46 -147 140 -173 262 -18 85 -21 236 -10
443 7 118 11 145 21 135 6 -8 42 -61 78 -119z m5333 -2 c18 -292 2 -467 -56
-585 -33 -66 -109 -143 -142 -143 -31 0 -45 54 -53 195 -9 170 3 244 60 360
56 114 163 295 174 295 5 0 12 -55 17 -122z m-4567 5 c-22 -32 -82 -119 -132
-193 -139 -207 -233 -316 -351 -404 -30 -22 -53 -33 -59 -27 -18 18 12 153 52
236 57 116 137 206 251 283 77 51 265 161 278 162 2 0 -16 -26 -39 -57z m3948
-109 c82 -58 195 -184 233 -259 32 -65 73 -212 68 -246 -3 -20 -7 -18 -65 21
-84 56 -230 204 -272 276 -84 144 -128 212 -183 279 -32 40 -58 76 -58 80 0
11 210 -103 277 -151z m171 54 c200 -481 262 -1044 171 -1564 -103 -595 -418
-1174 -841 -1546 l-73 -63 55 64 c30 35 88 100 129 145 40 45 101 115 134 156
34 41 88 104 122 140 37 41 68 85 79 115 10 28 43 93 72 146 117 210 212 453
257 655 65 288 72 357 71 679 0 219 -4 314 -17 389 -9 55 -14 103 -11 107 14
24 -109 422 -182 587 -14 31 -22 64 -18 74 3 11 7 18 9 16 2 -2 21 -47 43
-100z m-87 -610 c151 -161 185 -216 222 -353 35 -130 44 -313 17 -330 -5 -3
-30 20 -55 52 -120 151 -201 324 -290 624 -47 159 -47 159 -41 159 3 0 68 -68
147 -152z m-4221 125 c0 -18 -125 -414 -150 -475 -46 -113 -217 -354 -237
-335 -4 5 -8 59 -8 120 0 93 5 128 28 206 48 159 82 212 253 391 88 91 114
113 114 93z m4941 -316 c-58 -293 -116 -427 -232 -531 -57 -51 -132 -96 -162
-96 -19 0 -20 4 -14 93 12 182 68 329 175 462 63 79 263 287 269 281 3 -2 -14
-96 -36 -209z m-5744 131 c95 -79 203 -228 287 -395 42 -85 61 -191 57 -320
-1 -55 -17 -56 -98 -3 -86 57 -147 128 -198 234 -52 107 -76 191 -110 377 -26
142 -29 169 -19 169 3 0 39 -28 81 -62z m4979 -495 c93 -154 173 -318 190
-388 19 -84 22 -262 4 -325 -19 -71 -52 -141 -64 -137 -36 11 -128 221 -146
329 -21 137 -49 598 -36 598 3 0 26 -35 52 -77z m-4231 -222 c-18 -245 -29
-334 -52 -406 -23 -73 -77 -176 -106 -203 -25 -23 -26 -23 -36 -4 -5 10 -19
52 -31 93 -28 101 -28 248 0 360 21 88 100 247 187 380 l48 74 3 -39 c2 -21
-4 -136 -13 -255z m-725 -128 c232 -156 292 -204 348 -279 79 -105 140 -239
156 -341 6 -41 5 -43 -18 -43 -36 0 -163 55 -224 97 -110 76 -172 158 -286
382 -110 218 -139 281 -128 281 3 0 72 -44 152 -97z m5780 62 c-18 -48 -160
-331 -205 -410 -52 -90 -114 -159 -195 -215 -65 -44 -191 -100 -227 -100 -24
0 -25 2 -19 43 10 59 77 222 119 287 61 95 141 166 335 295 103 68 190 125
194 125 4 0 3 -11 -2 -25z m-4926 -356 c8 -41 34 -162 57 -269 34 -160 42
-215 42 -305 1 -116 -22 -247 -48 -281 -15 -18 -17 -17 -55 24 -53 59 -76 110
-100 227 -29 135 -28 241 4 397 25 125 74 294 82 286 2 -2 10 -38 18 -79z
m3980 4 c32 -99 62 -247 71 -343 13 -146 -26 -365 -80 -449 -30 -48 -71 -85
-84 -77 -6 4 -21 39 -33 79 -19 59 -23 94 -23 197 1 112 6 148 48 340 26 118
50 241 54 273 3 31 9 57 14 57 4 0 19 -35 33 -77z m-4621 -524 c235 -68 394
-153 518 -281 63 -64 169 -207 169 -228 0 -15 -97 -21 -159 -10 -164 30 -246
72 -391 205 -72 65 -214 231 -293 339 -20 28 -20 29 -1 22 10 -4 81 -25 157
-47z m5351 -1 c-28 -29 -78 -91 -111 -138 -69 -96 -134 -161 -243 -242 -117
-86 -187 -116 -327 -138 -84 -14 -133 -7 -133 19 0 20 60 109 123 183 75 87
210 180 365 252 66 31 323 111 367 115 5 1 -13 -23 -41 -51z m-4337 -247 c95
-167 124 -234 153 -341 32 -120 31 -300 -1 -300 -6 0 -50 39 -98 88 -66 67
-96 106 -129 172 -42 82 -44 91 -54 220 -7 82 -8 186 -3 265 l7 130 25 -50
c14 -28 59 -110 100 -184z m3322 24 c1 -243 -22 -363 -89 -460 -39 -57 -165
-186 -200 -205 l-23 -12 6 130 c7 138 25 241 52 307 10 22 54 105 100 185 46
80 96 171 111 203 38 77 42 62 43 -148z m-2869 -467 c181 -192 257 -283 288
-343 23 -47 47 -157 39 -180 -18 -46 -161 19 -262 120 -81 81 -139 182 -179
315 -41 139 -66 260 -52 260 1 0 76 -78 166 -172z m2435 60 c-66 -321 -251
-569 -445 -595 l-43 -6 6 61 c6 75 46 163 113 252 75 98 378 406 382 386 2 -8
-4 -53 -13 -98z m-3395 -108 c296 -34 343 -44 450 -102 107 -57 160 -92 225
-148 48 -42 48 -43 -17 -66 -207 -73 -481 -7 -742 179 -73 51 -184 134 -200
149 -17 14 100 9 284 -12z m4465 -6 c-45 -37 -219 -155 -315 -212 -152 -91
-326 -139 -461 -128 -92 8 -178 32 -186 52 -8 20 37 66 117 119 173 115 300
152 627 179 87 7 178 14 203 14 l45 1 -30 -25z m-3097 -158 c26 -13 107 -47
179 -76 152 -59 232 -108 286 -171 36 -41 97 -154 97 -178 0 -24 -235 -4 -289
24 -100 51 -289 286 -325 403 -9 28 -6 27 52 -2z m1505 -23 c-21 -62 -118
-204 -190 -279 -32 -34 -82 -73 -111 -88 -80 -41 -286 -62 -298 -31 -16 42
141 237 225 279 25 13 108 49 184 80 75 30 150 62 165 70 40 22 42 20 25 -31z
m657 6 c-46 -38 -244 -165 -325 -209 l-80 -43 29 31 c16 18 61 51 100 73 39
23 107 67 151 97 44 30 90 55 103 57 12 1 26 5 29 9 3 3 9 6 12 6 3 0 -5 -10
-19 -21z m-2164 -343 c147 -50 421 -104 539 -107 l50 -1 -45 -10 c-102 -21
-323 14 -555 89 -85 28 -105 38 -90 44 28 11 25 11 101 -15z m1552 15 c17 -11
-157 -68 -323 -107 -97 -22 -147 -28 -260 -29 -77 -1 -153 -7 -168 -14 -35
-14 -124 -15 -132 -1 -3 6 -18 11 -33 12 -15 0 47 4 138 9 249 11 508 56 680
118 62 22 79 24 98 12z m-1838 -11 c89 -11 119 -18 213 -52 l58 -21 -33 -34
c-85 -88 -232 -127 -448 -120 -155 5 -204 15 -454 95 l-119 38 229 44 c310 59
405 68 554 50z m2430 -20 c138 -23 361 -68 368 -74 6 -6 -266 -94 -365 -117
-99 -24 -311 -29 -398 -9 -64 14 -205 83 -236 116 -29 30 -23 35 71 64 177 54
321 59 560 20z m-1505 -130 c9 -14 -131 -156 -183 -185 -73 -41 -221 -92 -327
-114 -83 -17 -349 -42 -428 -41 -22 1 -22 1 -2 16 37 29 510 261 576 283 132
43 347 68 364 41z m403 -5 c165 -34 346 -104 473 -183 37 -22 104 -56 150 -76
46 -20 98 -45 114 -56 l30 -20 -44 0 c-90 0 -328 21 -406 36 -99 19 -254 68
-319 101 -63 32 -232 193 -214 205 21 13 141 9 216 -7z"/>
</g>
</svg>
