<svg width="195" height="269" viewBox="0 0 195 269" fill="none" xmlns="http://www.w3.org/2000/svg">
<path fill-rule="evenodd" clip-rule="evenodd" d="M101.171 95.55V84.3088H95.55V95.55H84.3088V101.171H95.55V112.412H101.171V101.171H112.412V95.55H101.171ZM101.171 11.2412V0H95.55V11.2412H84.3088V16.8618H95.55V28.1029H101.171V16.8618H112.412V11.2412H101.171ZM16.8618 95.55V84.3088H11.2412V95.55H0V101.171H11.2412V112.412H16.8618V101.171H28.1029V95.55H16.8618ZM16.8618 11.2412V0H11.2412V11.2412H0V16.8618H11.2412V28.1029H16.8618V16.8618H28.1029V11.2412H16.8618Z" fill="black" fill-opacity="0.2"/>
<path fill-rule="evenodd" clip-rule="evenodd" d="M101.171 251.55V240.309H95.55V251.55H84.3088V257.171H95.55V268.412H101.171V257.171H112.412V251.55H101.171ZM101.171 167.241V156H95.55V167.241H84.3088V172.862H95.55V184.103H101.171V172.862H112.412V167.241H101.171ZM16.8618 251.55V240.309H11.2412V251.55H0V257.171H11.2412V268.412H16.8618V257.171H28.1029V251.55H16.8618ZM16.8618 167.241V156H11.2412V167.241H0V172.862H11.2412V184.103H16.8618V172.862H28.1029V167.241H16.8618Z" fill="black" fill-opacity="0.2"/>
<path fill-rule="evenodd" clip-rule="evenodd" d="M183.759 95.55V84.3088H178.138V95.55H166.897V101.171H178.138V112.412H183.759V101.171H195V95.55H183.759ZM183.759 11.2412V0H178.138V11.2412H166.897V16.8618H178.138V28.1029H183.759V16.8618H195V11.2412H183.759Z" fill="black" fill-opacity="0.2"/>
<path fill-rule="evenodd" clip-rule="evenodd" d="M183.759 251.55V240.309H178.138V251.55H166.897V257.171H178.138V268.412H183.759V257.171H195V251.55H183.759ZM183.759 167.241V156H178.138V167.241H166.897V172.862H178.138V184.103H183.759V172.862H195V167.241H183.759Z" fill="black" fill-opacity="0.2"/>
</svg>
