<svg width="51" height="51" viewBox="0 0 51 51" fill="none" xmlns="http://www.w3.org/2000/svg">
<path fill-rule="evenodd" clip-rule="evenodd" d="M8.46398 32.688C11.056 34.096 14.224 34.8 17.968 34.8C19.728 34.8 21.52 34.64 23.344 34.32C23.8081 34.2304 24.2588 34.1357 24.6959 34.0358V47.086C24.6959 48.078 24.9519 48.862 25.4639 49.438C26.0079 49.982 26.7759 50.254 27.7679 50.254C28.7919 50.254 29.5599 49.982 30.0719 49.438C30.5839 48.862 30.8399 48.078 30.8399 47.086V37.198H39.3839C43.0959 37.198 45.9599 36.27 47.9759 34.414C49.9919 32.526 50.9999 29.918 50.9999 26.59C50.9999 23.262 49.9919 20.67 47.9759 18.814C45.9599 16.958 43.0959 16.03 39.3839 16.03H27.8159C27.7374 16.03 27.6603 16.0317 27.5846 16.0351C27.5319 16.033 27.4784 16.032 27.424 16.032H19.504C18.704 16.032 18.08 16.224 17.632 16.608C17.216 16.992 17.008 17.552 17.008 18.288C17.008 18.992 17.216 19.552 17.632 19.968C18.08 20.384 18.704 20.592 19.504 20.592H24.6959V28.5049C23.8592 28.7569 23.0085 28.9673 22.144 29.136C20.832 29.392 19.536 29.52 18.256 29.52C14.544 29.52 11.744 28.496 9.85598 26.448C7.96798 24.4 7.02398 21.408 7.02398 17.472C7.02398 14.88 7.42398 12.688 8.22398 10.896C9.05598 9.104 10.288 7.744 11.92 6.816C13.552 5.856 15.552 5.376 17.92 5.376C19.456 5.376 20.848 5.536 22.096 5.856C23.344 6.176 24.576 6.688 25.792 7.392C26.432 7.744 27.008 7.872 27.52 7.776C28.064 7.68 28.512 7.44 28.864 7.056C29.216 6.672 29.456 6.224 29.584 5.712C29.712 5.168 29.68 4.64 29.488 4.128C29.328 3.616 28.976 3.184 28.432 2.832C26.832 1.808 25.12 1.088 23.296 0.672C21.504 0.224 19.712 0 17.92 0C15.2 0 12.768 0.416 10.624 1.248C8.47998 2.048 6.65598 3.216 5.15198 4.752C3.67998 6.256 2.54398 8.08 1.74398 10.224C0.97598 12.368 0.59198 14.784 0.59198 17.472C0.59198 21.024 1.26398 24.096 2.60798 26.688C3.95198 29.28 5.90398 31.28 8.46398 32.688ZM38.4239 32.35H30.8399V20.878H38.4239C40.5999 20.878 42.2479 21.358 43.3679 22.318C44.4879 23.278 45.0479 24.702 45.0479 26.59C45.0479 28.478 44.4879 29.918 43.3679 30.91C42.2479 31.87 40.5999 32.35 38.4239 32.35Z" fill="white"/>
</svg>
